<?xml version="1.0" encoding="UTF-8"?>
<!-- Extracted from MaterialSymbolsRounded[FILL,GRAD,opsz,wght].ttf at wght=700, FILL=0, GRAD=0, opsz=24. -->
<svg xmlns="http://www.w3.org/2000/svg" viewBox="0 0 960 960">
  <path fill="#FFFFFF" d="M293 6Q240 6 203.5 42.5Q167 79 167 132V828Q167 881 203.5 917.5Q240 954 293 954H667Q720 954 756.5 917.5Q793 881 793 828V733Q812 722 823 703Q834 684 834 662V587Q834 565 823 545.5Q812 526 793 515V132Q793 79 756.5 42.5Q720 6 667 6ZM292 131H668Q668 131 668 131Q668 131 668 131V829Q668 829 668 829Q668 829 668 829H292Q292 829 292 829Q292 829 292 829V131Q292 131 292 131Q292 131 292 131ZM292 131Q292 131 292 131Q292 131 292 131V829Q292 829 292 829Q292 829 292 829Q292 829 292 829Q292 829 292 829V131Q292 131 292 131Q292 131 292 131ZM415 191H546Q572.35 191 590.175 209.5Q608 228 608 254.24561403508773Q608 280.49122807017545 590.175 298.2456140350877Q572.35 316 546 316H414Q387.65 316 369.825 297.5Q352 279 352 252.75438596491227Q352 226.50877192982455 370.5 208.75438596491227Q389 191 415 191Z"/>
</svg>
